PathFileType	4	(X/Y/Z)	..\data\2015007\dynamic\2015007_C4_04.trc
DataRate	CameraRate	NumFrames	NumMarkers	Units	OrigDataRate	OrigDataStartFrame	OrigNumFrames
100.000000	100.000000	4	52	mm	100.000000	121	162
Frame#	Time	L_IAS			L_IPS			R_IPS			R_IAS			L_FTC			L_FLE			L_FME			L_FAX			L_TTC			L_FAL			L_TAM			L_FCC			L_FM1			L_FM2			L_FM5			R_FTC			R_FLE			R_FME			R_FAX			R_TTC			R_FAL			R_TAM			R_FCC			R_FM1			R_FM2			R_FM5			CV7			TV10			SXS			SJN			L_SIA			L_SRS			L_SAA			L_SAE			L_HLE			L_HME			L_UOA			L_RSP			L_UHE			L_HM2			L_HM5			R_SIA			R_SRS			R_SAA			R_SAE			R_HLE			R_HME			R_UOA			R_RSP			R_UHE			R_HM2			R_HM5			
		X1	Y1	Z1	X2	Y2	Z2	X3	Y3	Z3	X4	Y4	Z4	X5	Y5	Z5	X6	Y6	Z6	X7	Y7	Z7	X8	Y8	Z8	X9	Y9	Z9	X10	Y10	Z10	X11	Y11	Z11	X12	Y12	Z12	X13	Y13	Z13	X14	Y14	Z14	X15	Y15	Z15	X16	Y16	Z16	X17	Y17	Z17	X18	Y18	Z18	X19	Y19	Z19	X20	Y20	Z20	X21	Y21	Z21	X22	Y22	Z22	X23	Y23	Z23	X24	Y24	Z24	X25	Y25	Z25	X26	Y26	Z26	X27	Y27	Z27	X28	Y28	Z28	X29	Y29	Z29	X30	Y30	Z30	X31	Y31	Z31	X32	Y32	Z32	X33	Y33	Z33	X34	Y34	Z34	X35	Y35	Z35	X36	Y36	Z36	X37	Y37	Z37	X38	Y38	Z38	X39	Y39	Z39	X40	Y40	Z40	X41	Y41	Z41	X42	Y42	Z42	X43	Y43	Z43	X44	Y44	Z44	X45	Y45	Z45	X46	Y46	Z46	X47	Y47	Z47	X48	Y48	Z48	X49	Y49	Z49	X50	Y50	Z50	X51	Y51	Z51	X52	Y52	Z52	

122	1.21	1277.908935546875	886.7112426757815	-377.6515502929688	1069.584838867188	903.6523437500002	-283.2623291015626	1086.988891601563	913.9905395507815	-178.0296173095703	1308.945556640625	906.5799560546877	-133.0967559814453	1184.143432617188	780.639831542969	-426.210906982422	1194.95703125	416.598846435547	-388.7861633300782	1227.699584960938	389.5681762695314	-272.1792297363282	1151.56640625	380.7080383300782	-390.8516235351564	1195.83935546875	336.0824890136719	-353.8928527832032	909.501159667969	176.6524505615235	-324.6127319335938	945.8955078125002	153.4350891113282	-253.0730438232422	863.6981201171877	176.9524688720703	-256.0718994140626	943.3276367187502	34.49876403808594	-275.5157470703126	943.700866699219	46.74819564819337	-322.3157653808594	894.545593261719	74.5934524536133	-352.3975524902344	1234.182006835938	805.3166503906252	-59.900203704834	1341.9697265625	444.0374145507814	-142.1347961425782	1315.142211914063	430.5132141113282	-266.0277404785157	1334.827270507813	387.3587036132814	-136.4989013671875	1375.778442382813	382.8803710937501	-191.0532531738282	1307.7998046875	62.25237274169923	-168.8151550292969	1324.294067382813	78.41548919677736	-255.328109741211	1259.055908203125	14.37626266479493	-217.4929809570313	1436.248901367188	16.86713790893555	-248.9759368896485	1435.7607421875	29.49649238586426	-203.7675476074219	1388.1220703125	10.12128734588623	-148.2411041259766	1181.048583984375	1399.941650390625	-235.5231628417969	1077.459838867188	1164.071166992188	-254.8834991455079	1350.266479492188	1062.968017578125	-256.1753845214844	1292.270874023438	1315.553833007813	-247.0711059570313	1077.6376953125	1213.703002929688	-339.1663818359376	1121.831420898438	1341.224853515625	-343.7966918945313	1166.76708984375	1346.548828125	-405.8885803222657	1217.29833984375	1352.700439453125	-417.6860961914064	1196.70703125	1042.42138671875	-501.4972229003907	1171.9814453125	1028.923706054688	-427.1651306152345	1170.798706054688	1012.719421386719	-475.4669799804689	1331.816650390625	842.888854980469	-472.7596740722657	1270.293701171875	824.6184082031252	-518.3051757812501	1370.010620117188	789.2386474609377	-483.8773498535157	1283.820068359375	764.7424316406251	-519.5552978515626	1076.450439453125	1201.082153320313	-172.9252319335938	1122.07470703125	1324.25732421875	-161.4604187011719	1175.916748046875	1322.189819335938	-90.40923309326173	1221.5595703125	1326.88916015625	-72.60976409912111	1180.241943359375	1012.494750976563	-7.057762622833254	1142.361328125	1003.023376464844	-70.49294281005861	1150.616455078125	986.7182617187502	-25.09710693359376	1238.094604492188	790.2122192382815	-4.474642276763917	1191.653076171875	797.9009399414065	35.92289352416993	1252.3330078125	709.0922851562501	7.855373859405519	1183.890991210938	731.1577758789064	50.653377532959	
123	1.22	1289.13330078125	888.0996093750002	-376.9515380859376	1080.614624023438	904.8735351562502	-282.2809448242188	1098.11572265625	915.1858520507815	-177.1576690673828	1320.06494140625	907.4956665039065	-132.1824035644532	1196.44482421875	782.0137329101565	-425.6275329589845	1216.777221679688	418.3949584960939	-389.5866699218751	1251.639526367188	391.1526794433595	-273.3366088867188	1173.934814453125	382.9372558593751	-391.6305236816407	1218.55517578125	337.7902832031251	-355.0655517578126	931.409118652344	180.2145538330078	-325.3371887207032	968.0735473632815	156.129150390625	-254.2763214111329	885.6278076171877	179.6131286621094	-256.6597290039063	965.5267333984377	37.32316589355469	-279.7852478027344	965.326843261719	50.32614135742189	-325.9760131835938	915.8050537109377	79.32704925537111	-354.8935241699219	1244.694702148438	806.2380371093752	-59.175838470459	1346.678955078125	443.4104614257814	-141.8856048583985	1320.255737304688	430.7587280273439	-265.7706604003907	1338.591430664063	386.7947082519532	-136.3116302490235	1379.7705078125	381.9945068359376	-190.668685913086	1307.98046875	62.24374389648439	-169.2481536865235	1324.43359375	78.41677093505861	-255.7087402343751	1259.13671875	14.39674091339112	-217.7348327636719	1436.352905273438	16.96636772155762	-249.0787048339844	1435.916870117188	29.76959609985352	-203.6859130859376	1388.087280273438	10.40785026550293	-148.1584777832032	1192.060913085938	1401.384887695313	-235.5658111572266	1088.686889648438	1165.363037109375	-254.4019012451172	1360.983520507813	1064.2939453125	-255.9251708984376	1303.228637695313	1316.942626953125	-247.1633911132813	1088.487548828125	1214.920532226563	-338.6648864746094	1132.60791015625	1342.45654296875	-343.5610351562501	1177.389892578125	1347.724853515625	-405.7713623046876	1227.905639648438	1353.818481445313	-417.6654357910157	1205.874267578125	1043.463500976563	-500.6885681152345	1181.009155273438	1030.41845703125	-426.3110961914064	1179.606201171875	1014.275268554688	-474.5767211914064	1337.356689453125	841.4619140625002	-471.6268920898439	1275.952392578125	824.812438964844	-518.0440063476564	1374.2900390625	786.8184814453127	-482.3120117187501	1288.09423828125	764.6140136718751	-519.3469848632814	1087.602416992188	1202.583618164063	-172.3563690185547	1133.199096679688	1325.768432617188	-161.1803283691407	1187.221435546875	1323.81005859375	-90.22836303710939	1232.946899414063	1328.5478515625	-72.5839309692383	1193.997802734375	1013.814086914063	-6.281763076782228	1155.8134765625	1003.941345214844	-69.48397827148439	1164.513916015625	987.6652832031252	-24.1458911895752	1254.718505859375	792.2828369140627	-4.029882431030274	1208.105712890625	799.300720214844	36.44966506958009	1269.967529296875	711.4113769531251	8.225909233093263	1201.411499023438	732.6480712890626	51.35255432128908	
124	1.23	1300.107788085938	889.8298950195315	-376.4721679687501	1091.518920898438	906.274597167969	-281.2129211425782	1109.16064453125	916.405212402344	-176.2505950927735	1331.0634765625	908.2974243164065	-131.3770904541016	1208.4736328125	783.7285156250002	-425.144256591797	1238.595581054688	420.6251831054689	-390.2730712890626	1274.98828125	393.395965576172	-274.2379760742188	1196.31494140625	385.4696655273439	-392.2559814453126	1241.46240234375	339.9409790039063	-356.0441284179688	954.3025512695315	182.8057403564453	-326.1743469238282	991.205261230469	158.1682281494141	-255.5096282958985	908.3503417968752	180.7836151123047	-257.5376281738282	990.0418090820315	39.81734848022462	-284.0475158691407	989.1867675781252	53.57407379150392	-329.6991882324219	939.135437011719	83.04598236083986	-357.5259094238282	1254.916625976563	807.018005371094	-58.56756591796876	1350.736938476563	442.757293701172	-141.5445098876953	1324.9453125	430.934295654297	-265.4594726562501	1341.787231445313	386.2178344726564	-136.0561065673828	1383.227294921875	381.1328125000001	-190.1795196533203	1308.062744140625	62.19126510620119	-169.6593322753907	1324.52783203125	78.3978729248047	-256.0330200195313	1259.136474609375	14.39591598510743	-218.009262084961	1436.400146484375	17.06199264526368	-249.1553344726563	1435.973510742188	29.96907234191895	-203.6285858154297	1388.00390625	10.57795524597168	-148.130844116211	1202.989624023438	1402.893188476563	-235.6569519042969	1099.8076171875	1166.728271484375	-253.7970428466797	1371.441650390625	1065.684204101563	-255.8311462402344	1314.096313476563	1318.378051757813	-247.3081359863282	1099.1875	1216.15966796875	-338.0534667968751	1143.242431640625	1343.707641601563	-343.3000488281251	1187.851684570313	1348.886352539063	-405.6577148437501	1238.296997070313	1354.943237304688	-417.702362060547	1214.848754882813	1044.53125	-499.9120483398439	1189.843872070313	1031.93896484375	-425.5008544921876	1188.231079101563	1015.865783691406	-473.7242126464845	1342.675170898438	840.1309814453127	-470.5524902343751	1281.37646484375	825.114196777344	-517.8594360351564	1378.2998046875	784.525573730469	-480.8106079101564	1292.170288085938	764.6104125976564	-519.2218017578126	1098.664306640625	1204.193359375	-171.6923217773438	1144.258666992188	1327.385131835938	-160.8859405517578	1198.469970703125	1325.579223632813	-90.07464599609376	1244.331298828125	1330.342041015625	-72.60214996337892	1207.7744140625	1015.242736816406	-5.525910377502442	1169.260986328125	1004.981140136719	-68.47524261474611	1178.444702148438	988.6968994140627	-23.19762802124024	1271.583618164063	794.5586547851565	-3.774640083312989	1224.820068359375	800.840270996094	36.83447265625001	1287.956420898438	713.9859619140626	8.368965148925783	1219.306274414063	734.2770385742189	51.87767028808595	
125	1.24	1310.870971679688	891.8879394531252	-376.1841430664063	1102.330810546875	907.8084106445315	-280.1260681152344	1120.12744140625	917.6504516601565	-175.3500061035157	1341.946533203125	909.031188964844	-130.6845245361328	1220.29638671875	785.7088012695315	-424.7753906250001	1260.366333007813	423.2346496582032	-390.872772216797	1297.700439453125	396.2038879394532	-274.9195861816407	1218.656860351563	388.2274780273439	-392.7662353515626	1264.481811523438	342.4946289062501	-356.8704833984376	978.0886230468752	184.3392333984375	-327.1587829589844	1015.221069335938	159.4728546142578	-256.8008728027344	931.8203125000002	180.4727478027344	-258.7205200195313	1016.618530273438	41.84324645996094	-288.1573181152344	1015.067504882813	56.30976867675783	-333.3484802246094	964.3668212890627	85.59606170654298	-360.2294006347657	1264.85791015625	807.6843261718752	-58.08703994750978	1354.244262695313	442.1204528808595	-141.1114349365235	1329.239868164063	431.0402832031251	-265.0952148437501	1344.525390625	385.6645507812501	-135.7287750244141	1386.224487304688	380.3190307617188	-189.6018218994141	1308.086181640625	62.11105346679689	-170.0328369140625	1324.598754882813	78.37316894531251	-256.2905883789063	1259.076538085938	14.39341735839844	-218.2946472167969	1436.408935546875	17.12364387512207	-249.2111816406251	1435.964233398438	30.07593536376954	-203.5947723388672	1387.8916015625	10.63552570343018	-148.142578125	1213.841674804688	1404.43994140625	-235.7825622558594	1110.8388671875	1168.14306640625	-253.0678863525391	1381.67919921875	1067.143310546875	-255.8847351074219	1324.885009765625	1319.8408203125	-247.4895782470704	1109.757202148438	1217.400634765625	-337.3362731933594	1153.751342773438	1344.958984375	-343.0077209472657	1198.16796875	1350.021606445313	-405.5372009277345	1248.4921875	1356.069946289063	-417.7836303710939	1223.6201171875	1045.62158203125	-499.1605834960939	1198.487915039063	1033.479858398438	-424.7203369140626	1196.666748046875	1017.479675292969	-472.9011535644532	1347.80078125	838.9165649414065	-469.5591430664064	1286.570434570313	825.513122558594	-517.7272949218751	1382.091796875	782.3994750976565	-479.4186096191407	1296.073486328125	764.7271728515626	-519.1559448242189	1109.6572265625	1205.875122070313	-170.9381866455078	1155.262084960938	1329.074951171875	-160.5741119384766	1209.666625976563	1327.469360351563	-89.94397735595705	1255.7080078125	1332.251831054688	-72.65722656250001	1221.56494140625	1016.763488769531	-4.792020797729493	1182.700439453125	1006.132141113281	-67.46716308593751	1192.40185546875	989.8006591796877	-22.25050163269043	1288.638427734375	797.024597167969	-3.722510337829591	1241.774291992188	802.5161132812502	37.07548141479493	1306.2509765625	716.7994384765626	8.263336181640627	1237.53857421875	736.0369873046876	52.21315765380861	
